<svg id="レイヤー_1" data-name="レイヤー 1" xmlns="http://www.w3.org/2000/svg" viewBox="0 0 189.26 187.6"><defs><style>.cls-1{fill:#d26b73;}.cls-2{fill:#231815;}</style></defs><title>logo_discord_2nd</title><path class="cls-1" d="M287.4,674.57a30.49,30.49,0,0,0,2.5-13.05c-0.23-3.88-1.67-7-4.54-13.12a157.09,157.09,0,0,0-8.79-15.83c-4.17-6.86-4.95-7.61-7.45-12.14-0.58-1.05-1.11-2.08-1.6-3.09l-2.39-5.52a7.33,7.33,0,0,0,.47-3,30.54,30.54,0,0,0-1.24-6.21l0-.18,0-.09a2.59,2.59,0,0,0-1.5-1.74,1.77,1.77,0,0,0-1.52.07c-1.13.73-.23,2.69-1.43,4.24-1,1.23-2.37,1.08-2.37,1.6h0L227.59,689c-1.32-.47-3.4-1.07-4-1.23q-18.39-4.93-38,9.55A67.26,67.26,0,0,0,159.87,735q-4.74,17.68,5.84,20.52,7.42,2,21.79-5.87t22.68-18.49l-2.13,5.78-2.64,6.84q-3.39,9-4.22,12.16-2.27,8.48,3.51,10,7.44,2,19-7.25,8.34-6.77,9.11-9.65,0.34-1.28-1.34-3.1Q221.18,759.2,215,757.53q-2-.52-0.9-4.44,0.77-2.88,3.27-9.49l1.88-4.91,16.7-45.77c0.21-.54.37-1,0.52-1.51h0l11.48-31.89a67.67,67.67,0,0,1,14.74,14.16c5.28,6.9,8.39,12,8.16,19.2a16.48,16.48,0,0,1-5.47,11.55c-3.42,2.8-5.49,3.91-11.6,6-7.62,2.66-13.66,3.84-13.63,5.17a0.86,0.86,0,0,0,.49.61l29.2-11.32L240.57,716.3c6.28,1.68,17.73-2.93,27.75-7.31,5.16-2.25,8.92-5.91,11.4-12.1a23,23,0,0,0,1.36-11.34l0,0A39.89,39.89,0,0,0,287.4,674.57Zm-68.57,34.15q-7.64,19.79-23.48,30.53-12.23,8.37-19.14,6.52-5.71-1.53-2.93-11.92,5.54-20.69,16.36-32.18t21.95-8.51q5.26,1.41,10.6,6.78Zm47.33-67.39c3.14,3.46,4.87,6.69,8.33,13.14,3.78,7,4.22,9.55,4.39,10.87a23.33,23.33,0,0,1-1.2,10.49l-0.34-.29c-6.36-9.95-10.72-16-13.62-19.82a78.86,78.86,0,0,1-5.37-7.9c-1.45-2.44-2.68-4.8-3.71-7l2.49-6.91A41.3,41.3,0,0,1,266.16,641.34ZM264.1,605v0h0Z" transform="translate(-130.31 -592.88)"/><path class="cls-2" d="M319.57,598.18l-33.84,27.93a166.66,166.66,0,0,0-45.42-6.73q-38.9,0-61.3,22.63t-22.41,62q0,27.72,16.18,44.64t42.3,16.92q44.23,0,69.47-39.75,6.53,4.89,6.53,9.17c0,11.28-9.53,27.33-38.45,37.61C202,790.55,164,775,145,754.28,116.87,723.55,132.41,663,164,636.1c34.26-29.13,73.52-43.21,116.08-43.21Q303.24,592.88,319.57,598.18Z" transform="translate(-130.31 -592.88)"/></svg>